# xmcd
#
# Track frame offsets:
#	150
#	17009
#	33933
#	50171
#	65831
#	83010
#	100608
#	119826
#	134477
#	148419
#	164009
#	182150
#
# Disc length: 2621 seconds
#
# Revision: 2
# Processed by: cddbd v1.4PL0 Copyright (c) Steve Scherf et al.
# Submitted via: dBpowerAMP V4.0
#
DISCID=b60a3b0c
DTITLE=Blue - All Rise
DYEAR=1900
DGENRE=blues
TTITLE0=All Rise
TTITLE1=Too Close
TTITLE2=This Temptation
TTITLE3=If You Come Back
TTITLE4=Fly By
TTITLE5=Bounce
TTITLE6=Long Time
TTITLE7=Make It Happen
TTITLE8=Back To You
TTITLE9=Girl I'll Never Understand
TTITLE10=Back Some Day
TTITLE11=Best In Me
EXTD=
EXTT0=
EXTT1=
EXTT2=
EXTT3=
EXTT4=
EXTT5=
EXTT6=
EXTT7=
EXTT8=
EXTT9=
EXTT10=
EXTT11=
PLAYORDER=
